<svg height="512" viewBox="0 0 448 512" width="448" xmlns="http://www.w3.org/2000/svg"><path d="m48 32c-26.5 0-48 21.5-48 48v352c0 26.5 21.5 48 48 48h352c26.5 0 48-21.5 48-48v-352c0-26.5-21.5-48-48-48zm140.1582 64c5.77357 0 11.87993 1.585687 17.77344 3.119141 5.76008 1.493339 11.7186 3.040349 17.39844 3.093749l.36133.02734c5.80016 0 11.82555-1.38637 17.65234-2.759761 5.6401-1.293542 11.45392-2.679688 16.86719-2.679688 2.6399 0 4.97413.305465 7.1875.945313 7.4533 2.186781 13.54601 8.359896 19.42578 14.306636 4.31962 4.37315 8.7738 8.89384 13.81445 11.94727 5.01238 3.05335 11.03904 4.89463 16.87891 6.66797 8.04061 2.5065 16.34637 5.05252 21.75976 10.66601 5.26661 5.45344 7.40133 13.35955 9.66797 21.7461 1.6272 6.01338 3.32019 12.22617 6.29297 17.51953 2.81315 5.02653 7.15877 9.53502 11.3457 13.9082 5.83994 6.07982 11.88051 12.3586 13.94727 20.0918 2.06636 7.70659-.02741 16.18682-2.02734 24.38672-1.45317 5.86651-2.94761 11.93331-2.87891 17.69336.07982 6.05353 1.73373 12.2939 3.33398 18.33398h-.00195c2.22668 8.37338 4.31931 16.27884 2.50586 23.63867-1.89324 7.60015-7.82639 13.9609-13.5332 20.10743-4.14616 4.47997-8.46618 9.1071-11.2793 14.24023-2.82693 5.18704-4.42609 11.32017-5.97266 17.22656-2.11968 8.13355-4.31917 16.50644-9.67968 22.13282-5.34648 5.55977-13.28111 7.96126-21.68164 10.50781-5.83943 1.77332-11.90468 3.62533-17.01172 6.63867-4.86726 2.90689-9.26772 7.21362-13.50781 11.38672-6.08026 5.9998-12.35943 12.17451-20.16016 14.28125-2.1189.55988-4.33245.82617-6.79883.82617-5.78674 0-11.89343-1.57271-17.77344-3.13281-5.74653-1.48017-11.72001-3.01135-17.38672-3.09375h-.38671c-5.79983 0-11.82807 1.38671-17.66797 2.77344-5.62661 1.29304-11.45188 2.64062-16.86524 2.64062-2.63996 0-4.97394-.3072-7.17383-.93359-7.4401-2.17324-13.54599-8.3332-19.43945-14.32032-4.29334-4.36017-8.76076-8.86695-13.80078-11.91992-4.99991-3.05314-11.03902-4.90721-16.87891-6.70703-8.03981-2.47993-16.34659-5.01425-21.77343-10.6543-5.24015-5.45344-7.38769-13.34582-9.6543-21.71875-1.626416-6.03962-3.319951-12.23958-6.306641-17.5332-2.79995-5.02674-7.133915-9.54814-11.333985-13.9082-5.83989-6.06667-11.8781-12.38523-13.93164-20.0918-2.06642-7.7066.01203-16.17337 2.02539-24.38672 1.44014-5.8534 2.932488-11.93328 2.867188-17.69336-.06688-6.06665-1.733623-12.2937-3.320313-18.32031-2.22693-8.37339-4.318777-16.28072-2.492187-23.64062 1.86675-7.59973 7.798939-13.95913 13.505859-20.11915 4.17303-4.45341 8.465827-9.10686 11.279297-14.24023 2.83971-5.15995 4.441008-11.30704 5.960938-17.24023 2.133184-8.12005 4.333274-16.5326 9.693364-22.11915 5.33312-5.54677 13.27966-7.97491 21.67968-10.52148 5.85338-1.7599 11.92047-3.59998 17.01367-6.61328 4.8935-2.90677 9.26572-7.21224 13.50586-11.42578 6.08016-5.95985 12.37338-12.173394 20.16016-14.240236 2.13316-.560007 4.34768-.839844 6.81445-.839844zm35.83985 21.03906c-74.82684 0-135.4668 62.22715-135.4668 138.94727 0 76.7469 60.63996 138.97461 135.4668 138.97461 74.82645 0 135.46679-62.22771 135.46679-138.97461 0-76.72012-60.64034-138.94727-135.46679-138.94727zm.02734 14.28125c68.86578 0 124.69336 55.82795 124.69336 124.66797 0 68.86662-55.82758 124.69336-124.69336 124.69336-68.85314 0-124.679687-55.82675-124.679687-124.69336 0-68.84003 55.826177-124.66797 124.679687-124.66797zm-12.05469 39c-2.90645 0-5.25195 2.34589-5.25195 5.2793v22.33398c0 2.93341 2.3451 5.25391 5.25195 5.25391h26.30664c2.90647 0 5.25391-2.3205 5.25391-5.25391v-22.33398c0-2.9199-2.36055-5.2793-5.25391-5.2793zm-19.70508 51.26758c-2.90683 0-5.26757 2.33219-5.26757 5.26563v22.33398c0 2.90648 2.36074 5.25195 5.26757 5.25195h14.45313v47.36133h-14.45313c-2.90683 0-5.26757 2.3322-5.26757 5.26563v23.64062c0 2.91981 2.36074 5.28125 5.26757 5.28125h65.73243c2.89335 0 5.26562-2.36144 5.26562-5.28125h.01367v-23.65234c0-2.9335-2.3722-5.26758-5.26562-5.26758h-14.4668v-74.93359c0-2.93344-2.36059-5.26563-5.2539-5.26563z"/></svg>